<svg width="2030" height="5698" viewBox="0 0 2030 5698" fill="none" xmlns="http://www.w3.org/2000/svg">
<path d="M1854.5 108.5C1854.5 108.5 1740 1351.5 1625.5 1880C1511 2408.5 582.999 2380 197 2480C-188.999 2580 197 5594.5 197 5594.5" stroke="#EBEBEB" stroke-width="50"/>
<path d="M1877.78 8.8293C1868.85 -1.70048 1853.07 -2.99667 1842.54 5.93419L1670.95 151.471C1660.42 160.402 1659.12 176.178 1668.05 186.708C1676.99 197.237 1692.76 198.534 1703.29 189.603L1855.82 60.2367L1985.18 212.763C1994.11 223.293 2009.89 224.589 2020.42 215.659C2030.95 206.728 2032.25 190.952 2023.32 180.422L1877.78 8.8293ZM1853.92 388.685L1883.63 27.0472L1833.8 22.9529L1804.08 384.591L1853.92 388.685Z" fill="#EBEBEB"/>
<ellipse cx="203" cy="5623.5" rx="73" ry="74.5" fill="#EBEBEB"/>
</svg>
