<svg width="5778" height="5073" viewBox="0 0 5778 5073" fill="none" xmlns="http://www.w3.org/2000/svg">
<ellipse cx="73" cy="4998.5" rx="73" ry="74.5" fill="#EBEBEB"/>
<path d="M89 4999.5C89 4999.5 1400.5 4184.5 1719 4131C2037.5 4077.5 4519 4131 4519 4131C4519 4131 4856 2554 5015.5 2430C5175 2306 5536.78 2318.47 5618 2075.5C5720.41 1769.12 5495.42 72.9126 5618 85.4999" stroke="#EBEBEB" stroke-width="50"/>
<path d="M5612.78 7.49252C5603.12 -2.36382 5587.29 -2.51571 5577.43 7.15326L5416.81 164.718C5406.96 174.387 5406.8 190.216 5416.47 200.072C5426.14 209.928 5441.97 210.08 5451.83 200.411L5594.6 60.3535L5734.66 203.125C5744.33 212.982 5760.15 213.134 5770.01 203.465C5779.87 193.796 5780.02 177.967 5770.35 168.111L5612.78 7.49252ZM5613 748.275L5619.94 25.2396L5569.94 24.7599L5563 747.796L5613 748.275Z" fill="#EBEBEB"/>
</svg>
